<svg width="291" height="64" viewBox="0 0 291 64" fill="none" xmlns="http://www.w3.org/2000/svg">
<path d="M22.7505 64C18.0395 64 13.9797 63.0999 10.5709 61.2998C7.18133 59.4805 4.56732 56.8761 2.7289 53.4865C0.909635 50.0778 0 45.9988 0 41.2496C0 36.6918 0.91921 32.7086 2.75763 29.2998C4.59605 25.8911 7.1909 23.2388 10.5422 21.3429C13.8935 19.447 17.848 18.4991 22.4057 18.4991C25.7379 18.4991 28.754 19.0162 31.4542 20.0503C34.1544 21.0844 36.462 22.5877 38.377 24.5601C40.292 26.5135 41.7666 28.8881 42.8007 31.684C43.8348 34.48 44.3519 37.6302 44.3519 41.1346V44.8115H4.94075V36.079H29.7594C29.7403 34.8151 29.4147 33.7044 28.7828 32.7469C28.17 31.7702 27.3369 31.0138 26.2837 30.4776C25.2496 29.9222 24.0718 29.6445 22.7505 29.6445C21.4674 29.6445 20.2896 29.9222 19.2172 30.4776C18.1448 31.0138 17.2831 31.7606 16.632 32.7181C16 33.6756 15.6649 34.7959 15.6266 36.079V45.5009C15.6266 46.918 15.9234 48.1819 16.5171 49.2926C17.1107 50.4034 17.9629 51.2747 19.0736 51.9066C20.1843 52.5386 21.5248 52.8546 23.0952 52.8546C24.1867 52.8546 25.1825 52.7014 26.0826 52.395C27.0018 52.0886 27.787 51.6481 28.4381 51.0736C29.0892 50.48 29.5679 49.7714 29.8743 48.9479H44.3519C43.854 52.012 42.6762 54.6738 40.8187 56.9336C38.9611 59.1741 36.5003 60.9168 33.4363 62.1616C30.3914 63.3872 26.8294 64 22.7505 64Z" fill="#192638"/>
<path d="M64.0215 19.0736L70.456 32.7469L77.2352 19.0736H92.9767L81.1418 41.1346L93.5512 63.1957H77.9246L70.456 49.1777L63.2172 63.1957H47.3609L59.8851 41.1346L48.1652 19.0736H64.0215Z" fill="#192638"/>
<path d="M98.614 63.1957V19.0736H114.47V63.1957H98.614ZM106.542 14.4776C104.397 14.4776 102.559 13.769 101.027 12.3519C99.4949 10.9348 98.7289 9.2304 98.7289 7.23878C98.7289 5.24716 99.4949 3.54279 101.027 2.12567C102.559 0.708557 104.397 0 106.542 0C108.706 0 110.545 0.708557 112.057 2.12567C113.589 3.54279 114.355 5.24716 114.355 7.23878C114.355 9.2304 113.589 10.9348 112.057 12.3519C110.545 13.769 108.706 14.4776 106.542 14.4776Z" fill="#192638"/>
<path d="M122.549 63.1957V19.0736H137.601V27.4614H138.061C138.98 24.7038 140.551 22.5206 142.772 20.912C144.993 19.3034 147.636 18.4991 150.7 18.4991C153.803 18.4991 156.474 19.3226 158.715 20.9695C160.955 22.5972 162.305 24.7612 162.765 27.4614H163.224C163.971 24.7612 165.561 22.5972 167.993 20.9695C170.425 19.3226 173.278 18.4991 176.553 18.4991C180.785 18.4991 184.213 19.8588 186.837 22.5781C189.479 25.2974 190.801 28.9168 190.801 33.4363V63.1957H174.944V37.4578C174.944 35.5236 174.456 34.0108 173.479 32.9192C172.503 31.8085 171.191 31.2531 169.544 31.2531C167.916 31.2531 166.624 31.8085 165.666 32.9192C164.728 34.0108 164.259 35.5236 164.259 37.4578V63.1957H149.092V37.4578C149.092 35.5236 148.603 34.0108 147.627 32.9192C146.65 31.8085 145.338 31.2531 143.691 31.2531C142.6 31.2531 141.661 31.5021 140.876 32C140.091 32.4979 139.478 33.216 139.038 34.1544C138.616 35.0736 138.406 36.1747 138.406 37.4578V63.1957H122.549Z" fill="#192638"/>
<path d="M219.763 64C215.052 64 210.992 63.0999 207.583 61.2998C204.194 59.4805 201.58 56.8761 199.741 53.4865C197.922 50.0778 197.013 45.9988 197.013 41.2496C197.013 36.6918 197.932 32.7086 199.77 29.2998C201.609 25.8911 204.203 23.2388 207.555 21.3429C210.906 19.447 214.861 18.4991 219.418 18.4991C222.75 18.4991 225.767 19.0162 228.467 20.0503C231.167 21.0844 233.475 22.5877 235.39 24.5601C237.305 26.5135 238.779 28.8881 239.813 31.684C240.847 34.48 241.364 37.6302 241.364 41.1346V44.8115H201.953V36.079H226.772C226.753 34.8151 226.427 33.7044 225.795 32.7469C225.183 31.7702 224.349 31.0138 223.296 30.4776C222.262 29.9222 221.084 29.6445 219.763 29.6445C218.48 29.6445 217.302 29.9222 216.23 30.4776C215.157 31.0138 214.296 31.7606 213.645 32.7181C213.013 33.6756 212.677 34.7959 212.639 36.079V45.5009C212.639 46.918 212.936 48.1819 213.53 49.2926C214.123 50.4034 214.975 51.2747 216.086 51.9066C217.197 52.5386 218.537 52.8546 220.108 52.8546C221.199 52.8546 222.195 52.7014 223.095 52.395C224.014 52.0886 224.8 51.6481 225.451 51.0736C226.102 50.48 226.58 49.7714 226.887 48.9479H241.364C240.867 52.012 239.689 54.6738 237.831 56.9336C235.974 59.1741 233.513 60.9168 230.449 62.1616C227.404 63.3872 223.842 64 219.763 64Z" fill="#192638"/>
<path d="M268.977 64C264.266 64 260.206 63.0999 256.797 61.2998C253.408 59.4805 250.794 56.8761 248.955 53.4865C247.136 50.0778 246.226 45.9988 246.226 41.2496C246.226 36.6918 247.145 32.7086 248.984 29.2998C250.822 25.8911 253.417 23.2388 256.768 21.3429C260.12 19.447 264.074 18.4991 268.632 18.4991C271.964 18.4991 274.98 19.0162 277.68 20.0503C280.381 21.0844 282.688 22.5877 284.603 24.5601C286.518 26.5135 287.993 28.8881 289.027 31.684C290.061 34.48 290.578 37.6302 290.578 41.1346V44.8115H251.167V36.079H275.986C275.966 34.8151 275.641 33.7044 275.009 32.7469C274.396 31.7702 273.563 31.0138 272.51 30.4776C271.476 29.9222 270.298 29.6445 268.977 29.6445C267.694 29.6445 266.516 29.9222 265.443 30.4776C264.371 31.0138 263.509 31.7606 262.858 32.7181C262.226 33.6756 261.891 34.7959 261.853 36.079V45.5009C261.853 46.918 262.15 48.1819 262.743 49.2926C263.337 50.4034 264.189 51.2747 265.3 51.9066C266.411 52.5386 267.751 52.8546 269.321 52.8546C270.413 52.8546 271.409 52.7014 272.309 52.395C273.228 52.0886 274.013 51.6481 274.664 51.0736C275.315 50.48 275.794 49.7714 276.101 48.9479H290.578C290.08 52.012 288.902 54.6738 287.045 56.9336C285.187 59.1741 282.727 60.9168 279.662 62.1616C276.618 63.3872 273.056 64 268.977 64Z" fill="#192638"/>
</svg>
